
        <svg xmlns="http://www.w3.org/2000/svg" xmlns:xlink="http://www.w3.org/1999/xlink" version="1.1" width="3128" 
        height="3128" viewBox="0 0 3128 3128">
			<rect fill="#ffffff" width="3128" height="3128"/>
			<g transform="scale(6.4) translate(10, 10)">
				<defs id="SvgjsDefs8998"><linearGradient id="SvgjsLinearGradient9007"><stop id="SvgjsStop9008" stop-color="#b88746" offset="0"></stop><stop id="SvgjsStop9009" stop-color="#fdf5a6" offset="1"></stop></linearGradient></defs><g id="SvgjsG8999" featureKey="rootContainer" transform="matrix(9.375,0,0,9.375,0.4687439650297165,0)" fill="#649dad"><path xmlns="http://www.w3.org/2000/svg" d="M24.95 0a25 25 0 1 0 25 25 25 25 0 0 0-25-25zm0 46.91a22 22 0 1 1 22-22 22 22 0 0 1-22 21.99z"></path><path xmlns="http://www.w3.org/2000/svg" d="M24.95 3.65a21.3 21.3 0 1 0 21.3 21.3 21.33 21.33 0 0 0-21.3-21.3z"></path></g><g id="SvgjsG9000" featureKey="symbolFeature-0" transform="matrix(1.8078135494214054,0,0,1.8078135494214054,144.09919310748757,187.1921864505786)" fill="url(#SvgjsLinearGradient9007)"><path xmlns="http://www.w3.org/2000/svg" fill-rule="evenodd" clip-rule="evenodd" d="M42.907,29.392c0.293,0.537-0.19,0.955,0.121,1.494  c1.173-2.141,1.445-4.529,2.424-6.698c0.137,1.184-0.03,2.398,0.385,3.659c2.606-1.977,5.463-3.48,8.146-5.257  c1.09-0.721,1.699-1.899,2.287-3.038c2.071-4.013,3.613-8.264,5.537-12.344c1.039-2.204,2.15-4.36,3.839-6.208  c-0.663,1.919-1.345,3.832-1.985,5.758c-1.185,3.559-2.266,7.143-2.862,10.861c-0.407,2.539-0.13,5.014,0.46,7.479  c0.069,0.29,0.16,0.574,0.283,1.005c-1.623-0.346-3.122-0.575-4.561-1.007c-0.781-0.234-1.375-0.079-2.01,0.268  c-5.092,2.78-8.634,7.001-11.282,12.075c-2.765,5.298-3.261,10.772-1.427,16.46c0.252,0.781,0.232,1.591,0.096,2.374  c-0.211,1.214-0.67,1.402-2.723,1.266c-0.06,0.458,0.295,0.697,0.537,0.971c0.584,0.658,1.195,1.417,2.188,1.209  c0.985-0.206,1.115-1.183,1.325-1.972c0.794-2.992,0.901-6.061,0.914-9.134c0.005-1.267,0.001-2.534,0.143-3.855  c1.241,1.159,2.015,2.6,2.687,4.094c2.082,4.635,3.375,9.53,4.555,14.445c0.571,2.381,2.051,3.992,3.743,5.604  c0.146-0.468-0.266-0.613-0.401-0.885c-0.159-0.319-0.414-0.592-0.569-0.914c-0.295-0.612-0.672-1.319-0.164-1.908  c0.545-0.631,1.289-0.247,1.878,0.049c2.398,1.204,4.603,2.731,6.756,4.318c8.988,6.625,16.445,14.674,22.259,24.212  c1.508,2.474,1.314,1.845-0.828,3.065c-3.646,2.079-7.603,2.238-11.639,1.651c-3.001-0.437-5.977-1.007-8.901-1.833  c-1.052-0.297-2.019-0.644-2.833-1.432c-0.56-0.543-1.286-0.91-2.369-1.037c0.905,0.656,1.86,0.794,2.43,1.558  c-5.948,1.112-21.983-6.289-25.493-11.786c0.987-0.043,1.911-0.216,2.824-0.449c0.915-0.233,1.818-0.051,2.749,0.048  c-1.025-0.895-2.224-1.368-3.584-1.268c-6.025,0.445-12.051,0.735-18.068-0.072c-1.999-0.269-3.945-0.768-6-1.74  c4.426-1.377,8.53-2.882,12.477-4.79c1.853-0.896,3.626-1.886,4.698-3.742c0.919,0.466,1.449,1.305,2.298,1.784  c-1.18-1.856-2.99-3.247-3.931-5.318c-0.24,1.279,0.229,2.601-0.353,3.844c-2.013-2.18-2.73-11.485-1.188-19.293  C29.706,43.177,34.59,35.186,42.907,29.392z M38.793,56.162c-3.339-6.651-2.363-13.1,0.732-19.481  c-0.188,0.06-0.287,0.121-0.34,0.209c-2.416,4.049-3.813,8.397-3.214,13.132C36.256,52.265,36.676,54.624,38.793,56.162z   M68.694,93.655c4.174,3.498,13.055,4.806,16.021,2.334C79.13,96.723,73.964,95.777,68.694,93.655z M64.674,91.303  c-2.171-1.574-3.744-4.299-6.952-3.583c0.251,0.524,1.171,0.2,1.399,0.819C60.122,91.246,62.469,91.14,64.674,91.303z   M47.176,85.149c-0.761-1.949-0.269-3.726,0.887-5.644C46.296,80.997,45.978,83.325,47.176,85.149z M42.357,76.79  c-1.391,1.327-1.669,3.243-0.699,4.805C41.172,79.892,41.606,78.337,42.357,76.79z M44.095,83.269  c-0.706-1.756,0.111-3.261,0.808-4.985C43.403,79.766,43.101,81.71,44.095,83.269z"></path><path xmlns="http://www.w3.org/2000/svg" fill-rule="evenodd" clip-rule="evenodd" d="M66.761,61.803c0.724,1.915,0.603,6.253-0.262,9.434  c-2.078-1.471-4.098-2.9-6.271-4.439C63.232,66.117,65.34,64.524,66.761,61.803z"></path></g><g id="SvgjsG9001" featureKey="nameFeature-0" transform="matrix(0.0077974583825069195,0,0,0.0077974583825069195,83.9747362217529,97.89676165280031)" fill="#649dad"><path d="M16.28 30.759999999999998 l0 -1.24 c0 -0.2 0.16 -0.36 0.36 -0.36 l4.56 0 c0.2 0 0.36 0.16 0.36 0.36 l0 2.52 c0 5.88 -3.16 8.36 -9.12 8.36 c-5.56 0 -9.2 -2.2 -9.2 -8.36 l0 -10.52 c0 -5.92 3.24 -8.28 9.2 -8.28 c5.64 0 9.12 2.16 9.12 8.28 l0 0.84 c0 0.2 -0.16 0.36 -0.36 0.36 l-4.6 0 c-0.2 0 -0.36 -0.16 -0.36 -0.36 l0 -0.64 c0 -2.2 -1.64 -3.12 -3.6 -3.12 l-0.48 0 c-1.32 0 -2.2 0.36 -2.8 1.16 c-0.56 0.76 -0.76 1.76 -0.76 3.08 l0 7.92 c0 3.48 1.96 4.24 3.56 4.24 l0.48 0 c2.52 0 3.56 -1.68 3.64 -4.24 z M12.36 15.719999999999999 c-4.28 0 -6.76 1.52 -6.76 6.4 l0 9.64 c0 4.44 2.28 6.08 6.76 6.08 c4.2 0 6.72 -1.52 6.72 -6.12 c0 -0.32 -0.48 -0.32 -0.48 0 c0 4.04 -2.2 5.68 -6.24 5.68 c-3.92 0 -6.32 -1.36 -6.32 -5.64 l0 -9.64 c0 -4.16 1.96 -5.96 6.32 -5.96 c5.68 0 5.88 3.6 5.88 4 c0 0.36 0.56 0.4 0.56 0 c0 -3.32 -3.36 -4.44 -6.44 -4.44 z M99.96000000000001 24 l0 -10.04 c0 -0.2 0.16 -0.36 0.36 -0.36 l4.56 0 c0.2 0 0.36 0.16 0.36 0.36 l0 25.68 c0 0.2 -0.16 0.36 -0.36 0.36 l-4.56 0 c-0.2 0 -0.36 -0.16 -0.36 -0.36 l0 -10.64 l-6.48 0 l0 10.64 c0 0.2 -0.16 0.36 -0.36 0.36 l-4.56 0 c-0.2 0 -0.32 -0.16 -0.32 -0.36 l0 -25.68 c0 -0.2 0.12 -0.36 0.32 -0.36 l4.56 0 c0.2 0 0.36 0.16 0.36 0.36 l0 10.04 l6.48 0 z M90.56 37.52 c0 0.32 0.52 0.28 0.52 0 l0 -10.72 l11.24 0 l0 10.72 c0 0.28 0.44 0.32 0.44 0 l0 -21.52 c0 -0.28 -0.44 -0.36 -0.44 0 l0 10.24 l-11.24 0 l0 -10.24 c0 -0.28 -0.52 -0.28 -0.52 0 l0 21.52 z M177.64 13.84 c0.04 -0.12 0.12 -0.24 0.28 -0.24 l4.96 0 c0.16 0 0.24 0.12 0.28 0.24 l6.92 25.72 c0.04 0.24 -0.12 0.44 -0.36 0.44 l-4.56 0 c-0.12 0 -0.24 -0.08 -0.28 -0.24 l-1.56 -5.6 l-5.84 0 l-1.52 5.6 c-0.04 0.16 -0.12 0.24 -0.28 0.24 l-4.6 0 c-0.24 0 -0.4 -0.2 -0.36 -0.44 z M178.76 29.2 l3.32 0 l-1.72 -6.04 z M184.92 31.560000000000002 l1.84 6 c0.08 0.24 0.52 0.2 0.4 -0.12 l-6.4 -21.28 c-0.12 -0.52 -0.8 -0.56 -0.92 0 l-6.2 21.28 c-0.12 0.28 0.32 0.4 0.44 0.16 l1.76 -6.04 l9.08 0 z M175.96 31.04 l4.36 -14.72 l4.44 14.72 l-8.8 0 z M270.6 29.560000000000002 c-0.56 1.16 -1.36 2.04 -2.48 2.56 l3.36 7.4 c0.12 0.24 -0.04 0.48 -0.28 0.48 l-4.92 0 c-0.16 0 -0.24 -0.08 -0.28 -0.2 l-3.12 -6.8 l-2.04 0 l0 6.64 c0 0.2 -0.16 0.36 -0.36 0.36 l-4.6 0 c-0.16 0 -0.28 -0.16 -0.28 -0.36 l0 -25.68 c0 -0.2 0.12 -0.36 0.28 -0.36 l8.32 0 c4.44 0 7.12 2.52 7.12 7.2 l0 5.04 c0 1.4 -0.24 2.72 -0.72 3.72 z M266.08 24.6 l0 -2.6 c0 -2.8 -1.04 -3.08 -4.08 -3.08 l-1.16 0 l0 8.84 l1.16 0 c2.52 0 4 -0.04 4.08 -3.16 z M258.52 37.56 l0 -6.84 l5.76 0 l3.36 6.92 c0.08 0.2 0.56 0.12 0.44 -0.24 l-3.36 -6.8 c3.12 -0.44 4.2 -2.08 4.2 -5.04 l0 -5 c0 -4.4 -4 -4.76 -5.24 -4.76 l-5.4 0 c-0.08 0 -0.24 0.12 -0.24 0.24 l0 21.52 c0 0.28 0.48 0.28 0.48 0 z M268.44 20.56 l0 5 c0 4.08 -2.6 4.64 -5.12 4.64 l-4.8 0 l0 -13.88 l5.16 0 c4.32 0 4.76 2.92 4.76 4.24 z M343.2 13.600000000000001 c0.2 0 0.36 0.16 0.36 0.36 l0 21 l8.64 0 c0.2 0 0.36 0.16 0.36 0.36 l0 4.32 c0 0.2 -0.16 0.36 -0.36 0.36 l-13.56 0 c-0.2 0 -0.32 -0.16 -0.32 -0.36 l0 -25.68 c0 -0.2 0.12 -0.36 0.32 -0.36 l4.56 0 z M340.72 16.04 l0 21.52 c0 0.08 0.08 0.2 0.24 0.2 l9.24 0 c0.32 0 0.32 -0.52 0 -0.52 l-9.04 0 l0 -21.2 c0 -0.28 -0.44 -0.32 -0.44 0 z M418.4 40 c-0.2 0 -0.32 -0.16 -0.32 -0.36 l0 -25.68 c0 -0.2 0.12 -0.36 0.32 -0.36 l4.56 0 c0.2 0 0.36 0.16 0.36 0.36 l0 25.68 c0 0.2 -0.16 0.36 -0.36 0.36 l-4.56 0 z M420.48 16 l0 21.56 c0 0.36 0.44 0.36 0.44 0 l0 -21.56 c0 -0.28 -0.44 -0.28 -0.44 0 z M490.91999999999996 40 c-0.2 0 -0.32 -0.16 -0.32 -0.36 l0 -25.68 c0 -0.2 0.12 -0.36 0.32 -0.36 l13.6 0 c0.2 0 0.36 0.16 0.36 0.36 l0 4.28 c0 0.2 -0.16 0.36 -0.36 0.36 l-8.64 0 l0 5.44 l6.72 0 c0.2 0 0.32 0.16 0.32 0.36 l0 4.36 c0 0.2 -0.12 0.36 -0.32 0.36 l-6.72 0 l0 5.88 l8.64 0 c0.2 0 0.36 0.16 0.36 0.36 l0 4.28 c0 0.2 -0.16 0.36 -0.36 0.36 l-13.6 0 z M492.91999999999996 16.12 l0 21.28 c0 0.24 0.16 0.32 0.32 0.32 l9.2 0 c0.36 0 0.28 -0.48 0 -0.48 l-9 0 l0 -10.44 l7.36 0 c0.24 0 0.24 -0.56 0 -0.56 l-7.36 0 l0 -9.92 l9 0 c0.28 0 0.36 -0.52 0 -0.52 l-9.2 0 c-0.16 0 -0.32 0.12 -0.32 0.32 z M663.2399999999999 13.600000000000001 c0.28 0 0.44 0.32 0.28 0.56 l-6.28 8.68 l6.64 16.72 c0.08 0.2 -0.04 0.44 -0.32 0.44 l-5.4 0 c-0.12 0 -0.24 -0.08 -0.28 -0.24 l-4.16 -11.96 l-2.04 2.8 l0 9.04 c0 0.2 -0.16 0.36 -0.36 0.36 l-4.56 0 c-0.2 0 -0.32 -0.16 -0.32 -0.36 l0 -25.68 c0 -0.2 0.12 -0.36 0.32 -0.36 l4.56 0 c0.2 0 0.36 0.16 0.36 0.36 l0 8.28 l6.28 -8.48 c0.12 -0.16 0.16 -0.16 0.32 -0.16 l4.96 0 z M648.8399999999999 16 l0 21.56 c0 0.28 0.44 0.28 0.44 0 l0 -7.76 l5 -6.64 l5.6 14.48 c0.08 0.2 0.56 0.08 0.44 -0.24 l-5.68 -14.76 l5.2 -6.92 c0.2 -0.2 -0.16 -0.56 -0.4 -0.32 l-10.16 13.6 l0 -13 c0 -0.28 -0.44 -0.28 -0.44 0 z M734.5999999999999 13.84 c0.04 -0.12 0.12 -0.24 0.28 -0.24 l4.96 0 c0.16 0 0.24 0.12 0.28 0.24 l6.92 25.72 c0.04 0.24 -0.12 0.44 -0.36 0.44 l-4.56 0 c-0.12 0 -0.24 -0.08 -0.28 -0.24 l-1.56 -5.6 l-5.84 0 l-1.52 5.6 c-0.04 0.16 -0.12 0.24 -0.28 0.24 l-4.6 0 c-0.24 0 -0.4 -0.2 -0.36 -0.44 z M735.7199999999999 29.2 l3.32 0 l-1.72 -6.04 z M741.8799999999999 31.560000000000002 l1.84 6 c0.08 0.24 0.52 0.2 0.4 -0.12 l-6.4 -21.28 c-0.12 -0.52 -0.8 -0.56 -0.92 0 l-6.2 21.28 c-0.12 0.28 0.32 0.4 0.44 0.16 l1.76 -6.04 l9.08 0 z M732.92 31.04 l4.36 -14.72 l4.44 14.72 l-8.8 0 z M815.56 13.8 l3.48 6.72 l3.4 -6.72 c0.12 -0.2 0.16 -0.2 0.32 -0.2 l4.48 0 c0.24 0 0.4 0.24 0.32 0.44 l-5.8 13.48 l0 12.12 c0 0.2 -0.16 0.36 -0.36 0.36 l-4.72 0 c-0.12 0 -0.28 -0.16 -0.28 -0.36 l0 -12.12 l-5.96 -13.4 c-0.08 -0.28 0.04 -0.52 0.32 -0.52 l4.48 0 c0.16 0 0.2 0 0.32 0.2 z M819.24 26.6 l5 -10.4 c0.12 -0.24 -0.28 -0.44 -0.44 -0.16 l-4.76 9.96 l-4.88 -9.96 c-0.16 -0.28 -0.6 -0.08 -0.48 0.2 l5.12 10.36 l0 11.04 c0 0.28 0.44 0.32 0.44 0 l0 -11.04 z M897.8 13.600000000000001 c0.2 0 0.36 0.16 0.36 0.36 l0 21 l8.64 0 c0.2 0 0.36 0.16 0.36 0.36 l0 4.32 c0 0.2 -0.16 0.36 -0.36 0.36 l-13.56 0 c-0.2 0 -0.32 -0.16 -0.32 -0.36 l0 -25.68 c0 -0.2 0.12 -0.36 0.32 -0.36 l4.56 0 z M895.3199999999999 16.04 l0 21.52 c0 0.08 0.08 0.2 0.24 0.2 l9.24 0 c0.32 0 0.32 -0.52 0 -0.52 l-9.04 0 l0 -21.2 c0 -0.28 -0.44 -0.32 -0.44 0 z M981.36 13.239999999999998 c3.44 0 5.84 0.76 7.36 2.4 c1.2 1.32 1.76 3.2 1.76 5.88 l0 10.52 c0 2.76 -0.56 4.68 -1.76 5.96 c-1.56 1.6 -3.92 2.4 -7.36 2.4 c-3.56 0 -5.88 -0.8 -7.4 -2.4 c-1.16 -1.28 -1.8 -3.2 -1.8 -5.96 l0 -10.52 c0 -2.68 0.64 -4.56 1.8 -5.92 c1.56 -1.6 3.92 -2.36 7.4 -2.36 z M985.16 30.84 l0 -8 c0 -3.52 -1.88 -4.24 -3.6 -4.24 l-0.48 0 c-2.56 0 -3.56 1.64 -3.56 4.24 l0 8 c0 3.52 1.88 4.28 3.56 4.28 l0.48 0 c2.56 0 3.56 -1.72 3.6 -4.28 z M974.68 21.8 l0 9.92 c0 1.88 0.48 3.44 1.6 4.6 c1.04 1.04 2.64 1.6 4.6 1.6 l1.04 0 c3.76 0 6.2 -2.4 6.2 -6.2 l0 -9.92 c0 -4.08 -2.16 -6.28 -6.2 -6.28 l-1.04 0 c-4.08 0 -6.2 2.2 -6.2 6.28 z M981.92 37.4 l-1.04 0 c-1.88 0 -3.28 -0.48 -4.28 -1.48 s-1.52 -2.4 -1.52 -4.2 l0 -9.92 c0 -3.8 2.04 -5.8 5.8 -5.8 l1.04 0 c3.8 0 5.68 1.96 5.68 5.8 l0 9.92 c0 1.68 -0.52 3.2 -1.6 4.24 c-1.04 0.88 -2.44 1.44 -4.08 1.44 z M1072.3999999999999 29.560000000000002 c-0.56 1.16 -1.36 2.04 -2.48 2.56 l3.36 7.4 c0.12 0.24 -0.04 0.48 -0.28 0.48 l-4.92 0 c-0.16 0 -0.24 -0.08 -0.28 -0.2 l-3.12 -6.8 l-2.04 0 l0 6.64 c0 0.2 -0.16 0.36 -0.36 0.36 l-4.6 0 c-0.16 0 -0.28 -0.16 -0.28 -0.36 l0 -25.68 c0 -0.2 0.12 -0.36 0.28 -0.36 l8.32 0 c4.44 0 7.12 2.52 7.12 7.2 l0 5.04 c0 1.4 -0.24 2.72 -0.72 3.72 z M1067.8799999999999 24.6 l0 -2.6 c0 -2.8 -1.04 -3.08 -4.08 -3.08 l-1.16 0 l0 8.84 l1.16 0 c2.52 0 4 -0.04 4.08 -3.16 z M1060.32 37.56 l0 -6.84 l5.76 0 l3.36 6.92 c0.08 0.2 0.56 0.12 0.44 -0.24 l-3.36 -6.8 c3.12 -0.44 4.2 -2.08 4.2 -5.04 l0 -5 c0 -4.4 -4 -4.76 -5.24 -4.76 l-5.4 0 c-0.08 0 -0.24 0.12 -0.24 0.24 l0 21.52 c0 0.28 0.48 0.28 0.48 0 z M1070.2399999999998 20.56 l0 5 c0 4.08 -2.6 4.64 -5.12 4.64 l-4.8 0 l0 -13.88 l5.16 0 c4.32 0 4.76 2.92 4.76 4.24 z"></path></g><g id="SvgjsG9002" featureKey="sloganFeature-0" transform="matrix(3.821128149489277,0,0,3.821128149489277,84,97.44232647434251)" fill="#ffffff"><path d="M1.88 18.12 l2.76 0 l0 1.88 l-4.64 0 l0 -14.36 l1.88 0 l0 12.48 z M9.834499999999998 20.02 c-1.5 0 -2.7 -1.22 -2.7 -2.7 l0 -8.98 c0 -1.48 1.2 -2.68 2.7 -2.68 c1.48 0 2.68 1.2 2.68 2.68 l0 8.98 c0 1.48 -1.2 2.7 -2.68 2.7 z M9.834499999999998 7.5600000000000005 c-0.44 0 -0.78 0.36 -0.78 0.78 l0 8.98 c0 0.44 0.34 0.78 0.78 0.78 c0.42 0 0.78 -0.34 0.78 -0.78 l0 -8.98 c0 -0.42 -0.36 -0.78 -0.78 -0.78 z M20.329 20 l-0.72 -4.94 l-2.02 0 l-0.66 4.94 l-1.92 0 l2.16 -14.3 l2.58 0 l2.5 14.3 l-1.92 0 z M17.848999999999997 13.16 l1.48 0 l-0.76 -5.2 z M29.383499999999998 16.72 l0.08 -11.08 l1.92 0 l-0.12 14.44 l-2.98 0 l-1.62 -11.18 l0 11.18 l-1.92 0 l0 -14.44 l3.1 0 z M42.112500000000004 20.12 c-1.52 0 -2.74 -1.24 -2.74 -2.74 l0 -2.18 l1.94 0 l0 2.18 c0 0.44 0.36 0.8 0.8 0.8 s0.78 -0.36 0.78 -0.8 l0 -1.9 l-3.52 -4.86 l0 -2.48 c0 -1.52 1.22 -2.76 2.74 -2.76 c1.5 0 2.72 1.24 2.72 2.76 l0 2.16 l-1.94 0 l0 -2.16 c0 -0.46 -0.34 -0.8 -0.78 -0.8 s-0.8 0.34 -0.8 0.8 l0 1.82 l3.52 4.86 l0 2.56 c0 1.5 -1.22 2.74 -2.72 2.74 z M50.927 5.720000000000001 l1.9 0 l0 14.26 l-1.9 0 l0 -7.54 l-1.7 0 l0 7.54 l-1.9 0 l0 -14.26 l1.9 0 l0 4.84 l1.7 0 l0 -4.84 z M60.3015 20 l-0.72 -4.94 l-2.02 0 l-0.66 4.94 l-1.92 0 l2.16 -14.3 l2.58 0 l2.5 14.3 l-1.92 0 z M57.8215 13.16 l1.48 0 l-0.76 -5.2 z M69.916 20.04 l-2.04 0 l-1.1 -3.02 l-0.44 0 l0 3.02 l-1.9 0 l0 -14.32 l2.98 0 c1.32 0 2.38 1.06 2.38 2.38 l0 6.54 c0 0.86 -0.44 1.6 -1.12 2.02 z M66.336 7.619999999999999 l0 7.5 l1.08 0 c0.26 0 0.48 -0.22 0.48 -0.48 l0 -6.54 c0 -0.26 -0.22 -0.48 -0.48 -0.48 l-1.08 0 z M76.6705 19.92 l-2.1 -7.88 l-0.3 0.5 l0 7.44 l-1.86 0 l0 -14.26 l1.86 0 l0 3.1 l1.24 -3.1 l2.3 0 l-1.9 4.12 l2.7 10.08 l-1.94 0 z"></path></g>
			</g>
		</svg>
	