
        <svg xmlns="http://www.w3.org/2000/svg" xmlns:xlink="http://www.w3.org/1999/xlink" version="1.1" width="3285.714285714286" height="3285.714285714286" viewBox="0 0 3285.714285714286 3285.714285714286">
			
			<g transform="scale(14.285714285714286) translate(10, 10)">
				<defs id="SvgjsDefs29936"/><g id="SvgjsG29937" featureKey="rootContainer" transform="matrix(2.1,0,0,2.1,0,0)" fill="#fff"><path xmlns="http://www.w3.org/2000/svg" d="M0 0h100v100H0z"/></g><g id="SvgjsG29938" featureKey="symbolFeature-0" transform="matrix(1.1111111111111112,0,0,1.1111111111111112,49.44444444444444,31.444444444444443)" fill="#000000"><path xmlns="http://www.w3.org/2000/svg" d="M50,5C25.1,5,5,25.1,5,50s20.1,45,45,45s45-20.1,45-45S74.9,5,50,5z M65.1,59.3l9.4-9.4L65,40.6c-0.5-0.4-0.7-1-0.7-1.6  c0-0.7,0.3-1.3,0.8-1.9c0.4-0.5,1-0.7,1.6-0.7c0,0,0,0,0.1,0c0.7,0,1.3,0.3,1.8,0.8L81.4,50L68.5,62.9c-0.9,0.9-2.5,0.9-3.5,0l0,0  c-0.4-0.4-0.7-1-0.7-1.6C64.3,60.6,64.5,59.9,65.1,59.3z M44,69.7c-0.2,0-0.5-0.1-0.8-0.2c-1.2-0.4-1.9-1.8-1.5-3.2l12-34.4l0,0  c0.2-0.6,0.6-1.1,1.2-1.4c0.3-0.2,0.7-0.2,1-0.2c0.3,0,0.6,0.1,0.9,0.2c1.2,0.4,1.9,1.8,1.5,3.2L46.3,68C46,69,45,69.7,44,69.7z   M34.9,40.6L25.6,50l9.4,9.4c0.5,0.4,0.7,1,0.7,1.6c0,0.7-0.3,1.3-0.8,1.8c-0.5,0.5-1.1,0.8-1.7,0.8c-0.6,0-1.3-0.3-1.7-0.8L18.6,50  l12.9-12.9c0.4-0.5,1-0.7,1.6-0.7c0.7,0,1.3,0.3,1.9,0.8c0.5,0.4,0.7,1,0.7,1.6C35.7,39.5,35.4,40.1,34.9,40.6z"/></g><g id="SvgjsG29939" featureKey="vMvB0T-0" transform="matrix(1.1769451219884508,0,0,1.1769451219884508,3.9885330415993066,150.29928513819442)" fill="#000000"><path d="M8.0762 20.19531 c-4.1504 0 -7.2168 -2.8223 -7.2168 -7.2559 s3.0664 -7.2461 7.2168 -7.2461 c3.1445 0 5.6641 1.6113 6.6699 4.2871 l-2.7344 0.99609 c-0.625 -1.6406 -2.1191 -2.5879 -3.9355 -2.5879 c-2.4316 0 -4.2969 1.6992 -4.2969 4.5508 s1.8652 4.5605 4.2969 4.5605 c1.8164 0 3.3105 -0.95703 3.9355 -2.5977 l2.7344 0.99609 c-1.0059 2.6758 -3.5254 4.2969 -6.6699 4.2969 z M26.045265625 5.888999999999999 l2.9297 0 l0 14.111 l-2.9297 0 l0 -5.8008 l-5.9668 0 l0 5.8008 l-2.9297 0 l0 -14.111 l2.9297 0 l0 5.7617 l5.9668 0 l0 -5.7617 z M42.070781249999996 20 l-1.0254 -2.9102 l-5.9277 0 l-1.0254 2.9102 l-2.998 0 l5.1953 -14.111 l3.584 0 l5.1953 14.111 l-2.998 0 z M35.97658125 14.6387 l4.209 0 l-2.0996 -5.9863 z M54.638628125 20 l-3.6719 -6.2109 l-0.84961 0 l0 6.2109 l-2.9297 0 l0 -14.111 l5.1172 0 c3.1934 0 4.541 1.8848 4.541 4.2188 c0 1.8945 -1.0742 3.125 -2.9883 3.5352 l4.248 6.3574 l-3.4668 0 z M50.117228125 8.32 l0 3.3691 l1.7285 0 c1.5625 0 2.1973 -0.66406 2.1973 -1.6797 c0 -1.0059 -0.63477 -1.6895 -2.1973 -1.6895 l-1.7285 0 z M63.183634375 17.4121 l4.4238 0 l0 2.5879 l-7.3535 0 l0 -14.111 l2.9297 0 l0 11.523 z M69.843778125 20 l0 -14.111 l2.9297 0 l0 14.111 l-2.9297 0 z M84.59984375 8.467 l-5.2344 0 l0 3.2031 l4.6387 0 l0 2.5488 l-4.6387 0 l0 3.1934 l5.2344 0 l0 2.5879 l-8.1836 0 l0 -14.111 l8.1836 0 l0 2.5781 z M101.162328125 20 l-4.3848 -5.9961 l-1.0352 0 l0 5.9961 l-2.9297 0 l0 -14.111 l2.9297 0 l0 5.5469 l0.99609 0 l4.4238 -5.5469 l3.5742 0 l-5.4688 6.748 l5.6348 7.3633 l-3.7402 0 z M116.44578125 20 l-1.0254 -2.9102 l-5.9277 0 l-1.0254 2.9102 l-2.998 0 l5.1953 -14.111 l3.584 0 l5.1953 14.111 l-2.998 0 z M110.35158125 14.6387 l4.209 0 l-2.0996 -5.9863 z M132.148328125 5.888999999999999 l-4.6387 7.3535 l0 6.7578 l-2.9395 0 l0 -6.6895 l-4.668 -7.4219 l3.2422 0 l2.8809 4.8047 l2.8906 -4.8047 l3.2324 0 z M137.0605875 17.4121 l4.4238 0 l0 2.5879 l-7.3535 0 l0 -14.111 l2.9297 0 l0 11.523 z M149.97073125 20.19531 c-4.1504 0 -7.2168 -2.832 -7.2168 -7.2559 c0 -4.4336 3.0664 -7.2461 7.2168 -7.2461 c4.1406 0 7.207 2.8125 7.207 7.2461 c0 4.4238 -3.0664 7.2559 -7.207 7.2559 z M149.97073125 17.5098 c2.4316 0 4.2969 -1.709 4.2969 -4.5703 c0 -2.8516 -1.8652 -4.5508 -4.2969 -4.5508 s-4.2969 1.6992 -4.2969 4.5508 c0 2.8613 1.8652 4.5703 4.2969 4.5703 z M167.324175 20 l-3.6719 -6.2109 l-0.84961 0 l0 6.2109 l-2.9297 0 l0 -14.111 l5.1172 0 c3.1934 0 4.541 1.8848 4.541 4.2188 c0 1.8945 -1.0742 3.125 -2.9883 3.5352 l4.248 6.3574 l-3.4668 0 z M162.802775 8.32 l0 3.3691 l1.7285 0 c1.5625 0 2.1973 -0.66406 2.1973 -1.6797 c0 -1.0059 -0.63477 -1.6895 -2.1973 -1.6895 l-1.7285 0 z"/></g>
			</g>
		</svg>
	